Format                                   : Matroska
Format version                           : Version 2
File size                                : 803 MiB
Duration                                 : 1h 36mn
Overall bit rate                         : 1 169 Kbps
Writing application                      : HandBrake 0.9.8
Writing library                          : libmkv 0.6.5

Video
ID                                       : 1
Format                                   : AVC
Format/Info                              : Advanced Video Codec
Format profile                           : Main@L3.0
Format settings, CABAC                   : Yes
Format settings, ReFrames                : 4 frames
Codec ID                                 : V_MPEG4/ISO/AVC
Duration                                 : 1h 36mn
Bit rate                                 : 697 Kbps
Width                                    : 720 pixels
Height                                   : 480 pixels
Display aspect ratio                     : 16:9
Original display aspect ratio            : 16:9
Frame rate mode                          : Variable
Frame rate                               : 23.976 fps
Standard                                 : NTSC
Color space                              : YUV
Chroma subsampling                       : 4:2:0
Bit depth                                : 8 bits
Scan type                                : Progressive
Bits/(Pixel*Frame)                       : 0.084
Stream size                              : 479 MiB (60%)
Writing library                          : x264 core 120

Language                                 : English
Default                                  : Yes
Forced                                   : No
Color primaries                          : BT.601-6 525, BT.1358 525, BT.1700 NTSC, SMPTE 170M
Transfer characteristics                 : BT.709-5, BT.1361
Matrix coefficients                      : BT.601-6 525, BT.1358 525, BT.1700 NTSC, SMPTE 170M

Audio
ID                                       : 2
Format                                   : AC-3
Format/Info                              : Audio Coding 3
Mode extension                           : CM (complete main)
Codec ID                                 : A_AC3
Duration                                 : 1h 36mn
Bit rate mode                            : Constant
Bit rate                                 : 448 Kbps
Channel(s)                               : 6 channels
Channel positions                        : Front: L C R, Side: L R, LFE
Sampling rate                            : 48.0 KHz
Bit depth                                : 16 bits
Compression mode                         : Lossy
Stream size                              : 308 MiB (38%)
Language                                 : English
Default                                  : Yes
Forced                                   : No

Storyline

In St. John College, the freshmen and best friends Luke and Roger meet the sexy blond cousins Lilly and Constance in the laundry of their building. They are next-door neighbors, and the experienced girls invite the young men to visit them anytime. Lilly forgets a package of coins in the laundry, and Luke goes to their room to return it. The room is empty, and he sneaks around, when the two girls arrive. Luke hides himself in the wardrobe, and through an opening, he sees Lilly with many tentacles on her breast. Luke tries to convince his friends that the girls are aliens, planning to attack Earth, but nobody believes in him. Meanwhile, some friends of them are found dead, with the internal organs completely frozen. 


Sample Included